<svg xmlns="http://www.w3.org/2000/svg" viewBox="0 0 60 40">
  <rect width="60" height="40" fill="#de2910"/>
  <polygon points="8,6 9.2,9.6 13,9.6 9.8,11.8 11,15.4 8,13.2 5,15.4 6.2,11.8 3,9.6 6.8,9.6" fill="#ffde00"/>
  <polygon points="14,3 14.5,5 16.5,5 15,6.2 15.5,8.2 14,7 12.5,8.2 13,6.2 11.5,5 13.5,5" fill="#ffde00"/>
  <polygon points="17,6 17.5,8 19.5,8 18,9.2 18.5,11.2 17,10 15.5,11.2 16,9.2 14.5,8 16.5,8" fill="#ffde00"/>
  <polygon points="17,11 17.5,13 19.5,13 18,14.2 18.5,16.2 17,15 15.5,16.2 16,14.2 14.5,13 16.5,13" fill="#ffde00"/>
  <polygon points="14,14 14.5,16 16.5,16 15,17.2 15.5,19.2 14,18 12.5,19.2 13,17.2 11.5,16 13.5,16" fill="#ffde00"/>
</svg>
